<svg width="112" height="91" viewBox="0 0 112 91" fill="none" xmlns="http://www.w3.org/2000/svg">
<g clip-path="url(#clip0_3_25)">
<rect width="111.709" height="90.7636" transform="translate(0.145508)" fill="#EBECEC"/>
<path fill-rule="evenodd" clip-rule="evenodd" d="M79.9273 45.3818C79.9273 58.5965 69.2147 69.3091 56.0001 69.3091C42.7854 69.3091 32.0728 58.5965 32.0728 45.3818C32.0728 32.1671 42.7854 21.4545 56.0001 21.4545C69.2147 21.4545 79.9273 32.1671 79.9273 45.3818ZM83.8568 47.3818C82.8315 61.8722 70.7514 73.3091 56.0001 73.3091C41.2487 73.3091 29.1686 61.8722 28.1433 47.3818H0.145508V43.3818H28.1433C29.1686 28.8915 41.2487 17.4545 56.0001 17.4545C70.7514 17.4545 82.8315 28.8915 83.8568 43.3818H111.855V47.3818H83.8568ZM43.5274 47.3818V52.3636H47.5274V47.3818H52.5092V43.3818H47.5274V38.4H43.5274V43.3818H38.5455V47.3818H43.5274ZM73.4547 43.3818H59.491V47.3818H73.4547V43.3818Z" fill="black"/>
</g>
<defs>
<clipPath id="clip0_3_25">
<rect width="111.709" height="90.7636" fill="white" transform="translate(0.145508)"/>
</clipPath>
</defs>
</svg>
