<svg width="112" height="92" viewBox="0 0 112 92" fill="none" xmlns="http://www.w3.org/2000/svg">
<g clip-path="url(#clip0_3_34)">
<rect width="111.709" height="90.7636" transform="translate(0.145508 0.309082)" fill="#EBECEC"/>
<path fill-rule="evenodd" clip-rule="evenodd" d="M97.8909 45.2302L96.376 45.2303L90.9094 56.1637L78.507 31.3588L76.9458 28.2364L75.3846 31.3588L62.9822 56.1637L50.5797 31.3588L49.0185 28.2364L47.4574 31.3588L35.0549 56.1637L22.6524 31.3588L21.0913 28.2364L19.5301 31.3588L12.5942 45.2302H0.145455V46.9757H11.7215L11.7215 46.9757H15.6245L21.0912 36.0423L33.4937 60.8472L35.0549 63.9696L36.6161 60.8472L49.0185 36.0423L61.421 60.8472L62.9822 63.9696L64.5434 60.8472L76.9458 36.0423L89.3483 60.8472L90.9095 63.9696L92.4706 60.8472L99.4063 46.9757H111.855V45.2302H97.8909Z" fill="black"/>
</g>
<defs>
<clipPath id="clip0_3_34">
<rect width="111.709" height="90.7636" fill="white" transform="translate(0.145508 0.309082)"/>
</clipPath>
</defs>
</svg>
