<svg width="112" height="91" viewBox="0 0 112 91" fill="none" xmlns="http://www.w3.org/2000/svg">
<g clip-path="url(#clip0_3_25)">
<path fill-rule="evenodd" clip-rule="evenodd" d="M79.9273 45.3818C79.9273 58.5965 69.2147 69.3091 56 69.3091C42.7853 69.3091 32.0727 58.5965 32.0727 45.3818C32.0727 32.1671 42.7853 21.4545 56 21.4545C69.2147 21.4545 79.9273 32.1671 79.9273 45.3818ZM83.8568 47.3818C82.8314 61.8722 70.7513 73.3091 56 73.3091C41.2487 73.3091 29.1686 61.8722 28.1432 47.3818H0.145455V43.3818H28.1432C29.1686 28.8915 41.2487 17.4545 56 17.4545C70.7513 17.4545 82.8314 28.8915 83.8568 43.3818H111.855V47.3818H83.8568ZM43.5273 47.3818V52.3636H47.5273V47.3818H52.5092V43.3818H47.5273V38.4H43.5273V43.3818H38.5455V47.3818H43.5273ZM73.4546 43.3818H59.4909V47.3818H73.4546V43.3818Z" fill="black"/>
</g>
<defs>
<clipPath id="clip0_3_25">
<rect width="111.709" height="90.7636" fill="white" transform="translate(0.145508)"/>
</clipPath>
</defs>
</svg>
