<svg width="887" height="469" viewBox="0 0 887 469" fill="none" xmlns="http://www.w3.org/2000/svg">
<g clip-path="url(#clip0_5_147)">
<path d="M738.821 130.566C737.611 130.566 736.495 130.285 735.472 129.724C734.462 129.15 733.657 128.358 733.058 127.348C732.472 126.325 732.179 125.178 732.179 123.906C732.179 122.634 732.472 121.492 733.058 120.482C733.657 119.472 734.462 118.686 735.472 118.125C736.495 117.551 737.611 117.264 738.821 117.264C740.043 117.264 741.159 117.551 742.169 118.125C743.192 118.686 743.997 119.472 744.583 120.482C745.169 121.492 745.462 122.634 745.462 123.906C745.462 125.178 745.169 126.325 744.583 127.348C743.997 128.358 743.192 129.15 742.169 129.724C741.159 130.285 740.043 130.566 738.821 130.566ZM738.821 128.714C739.681 128.714 740.448 128.521 741.122 128.134C741.795 127.735 742.319 127.174 742.693 126.45C743.08 125.714 743.273 124.866 743.273 123.906C743.273 122.945 743.08 122.104 742.693 121.38C742.319 120.657 741.795 120.102 741.122 119.715C740.448 119.329 739.681 119.135 738.821 119.135C737.96 119.135 737.193 119.329 736.52 119.715C735.846 120.102 735.316 120.657 734.929 121.38C734.555 122.104 734.368 122.945 734.368 123.906C734.368 124.866 734.555 125.714 734.929 126.45C735.316 127.174 735.846 127.735 736.52 128.134C737.193 128.521 737.96 128.714 738.821 128.714ZM751.845 130.566C750.972 130.566 750.186 130.416 749.488 130.117C748.789 129.805 748.241 129.369 747.841 128.807C747.442 128.246 747.243 127.591 747.243 126.843H749.525C749.575 127.404 749.793 127.866 750.18 128.227C750.579 128.589 751.134 128.77 751.845 128.77C752.581 128.77 753.155 128.595 753.566 128.246C753.978 127.884 754.184 127.423 754.184 126.862C754.184 126.425 754.053 126.07 753.791 125.795C753.541 125.521 753.223 125.309 752.837 125.159C752.462 125.01 751.939 124.848 751.265 124.673C750.417 124.448 749.725 124.224 749.188 123.999C748.665 123.762 748.216 123.401 747.841 122.914C747.467 122.428 747.28 121.779 747.28 120.969C747.28 120.22 747.467 119.566 747.841 119.004C748.216 118.443 748.739 118.013 749.413 117.713C750.086 117.414 750.866 117.264 751.751 117.264C753.011 117.264 754.04 117.582 754.838 118.219C755.649 118.842 756.098 119.703 756.185 120.8H753.828C753.791 120.326 753.566 119.921 753.155 119.584C752.743 119.247 752.2 119.079 751.527 119.079C750.916 119.079 750.417 119.235 750.03 119.547C749.644 119.859 749.45 120.308 749.45 120.894C749.45 121.293 749.569 121.623 749.806 121.885C750.055 122.135 750.367 122.334 750.741 122.484C751.115 122.634 751.627 122.796 752.275 122.97C753.136 123.207 753.834 123.444 754.371 123.681C754.919 123.918 755.381 124.286 755.755 124.785C756.142 125.272 756.335 125.926 756.335 126.75C756.335 127.411 756.154 128.034 755.792 128.62C755.443 129.207 754.926 129.68 754.24 130.042C753.566 130.391 752.768 130.566 751.845 130.566ZM758.141 123.906C758.141 122.634 758.434 121.492 759.02 120.482C759.619 119.472 760.423 118.686 761.433 118.125C762.456 117.551 763.572 117.264 764.782 117.264C766.167 117.264 767.395 117.607 768.468 118.293C769.553 118.967 770.339 119.927 770.825 121.174H768.262C767.925 120.488 767.457 119.977 766.859 119.64C766.26 119.304 765.568 119.135 764.782 119.135C763.922 119.135 763.155 119.329 762.481 119.715C761.808 120.102 761.277 120.657 760.891 121.38C760.517 122.104 760.33 122.945 760.33 123.906C760.33 124.866 760.517 125.708 760.891 126.431C761.277 127.155 761.808 127.716 762.481 128.115C763.155 128.502 763.922 128.695 764.782 128.695C765.568 128.695 766.26 128.527 766.859 128.19C767.457 127.853 767.925 127.342 768.262 126.656H770.825C770.339 127.903 769.553 128.864 768.468 129.537C767.395 130.211 766.167 130.547 764.782 130.547C763.56 130.547 762.444 130.267 761.433 129.705C760.423 129.132 759.619 128.34 759.02 127.329C758.434 126.319 758.141 125.178 758.141 123.906ZM775.454 117.433V130.435H773.321V117.433H775.454ZM780.387 128.714H784.783V130.435H778.254V117.433H780.387V128.714ZM788.7 128.714H793.096V130.435H786.567V117.433H788.7V128.714ZM800.81 130.566C799.6 130.566 798.484 130.285 797.461 129.724C796.451 129.15 795.647 128.358 795.048 127.348C794.462 126.325 794.169 125.178 794.169 123.906C794.169 122.634 794.462 121.492 795.048 120.482C795.647 119.472 796.451 118.686 797.461 118.125C798.484 117.551 799.6 117.264 800.81 117.264C802.033 117.264 803.149 117.551 804.159 118.125C805.182 118.686 805.986 119.472 806.572 120.482C807.159 121.492 807.452 122.634 807.452 123.906C807.452 125.178 807.159 126.325 806.572 127.348C805.986 128.358 805.182 129.15 804.159 129.724C803.149 130.285 802.033 130.566 800.81 130.566ZM800.81 128.714C801.671 128.714 802.438 128.521 803.111 128.134C803.785 127.735 804.309 127.174 804.683 126.45C805.07 125.714 805.263 124.866 805.263 123.906C805.263 122.945 805.07 122.104 804.683 121.38C804.309 120.657 803.785 120.102 803.111 119.715C802.438 119.329 801.671 119.135 800.81 119.135C799.95 119.135 799.183 119.329 798.509 119.715C797.836 120.102 797.306 120.657 796.919 121.38C796.545 122.104 796.358 122.945 796.358 123.906C796.358 124.866 796.545 125.714 796.919 126.45C797.306 127.174 797.836 127.735 798.509 128.134C799.183 128.521 799.95 128.714 800.81 128.714ZM813.835 130.566C812.962 130.566 812.176 130.416 811.477 130.117C810.779 129.805 810.23 129.369 809.831 128.807C809.432 128.246 809.232 127.591 809.232 126.843H811.515C811.565 127.404 811.783 127.866 812.17 128.227C812.569 128.589 813.124 128.77 813.835 128.77C814.571 128.77 815.144 128.595 815.556 128.246C815.967 127.884 816.173 127.423 816.173 126.862C816.173 126.425 816.042 126.07 815.78 125.795C815.531 125.521 815.213 125.309 814.826 125.159C814.452 125.01 813.928 124.848 813.255 124.673C812.407 124.448 811.714 124.224 811.178 123.999C810.654 123.762 810.205 123.401 809.831 122.914C809.457 122.428 809.27 121.779 809.27 120.969C809.27 120.22 809.457 119.566 809.831 119.004C810.205 118.443 810.729 118.013 811.403 117.713C812.076 117.414 812.856 117.264 813.741 117.264C815.001 117.264 816.03 117.582 816.828 118.219C817.639 118.842 818.088 119.703 818.175 120.8H815.818C815.78 120.326 815.556 119.921 815.144 119.584C814.733 119.247 814.19 119.079 813.517 119.079C812.905 119.079 812.407 119.235 812.02 119.547C811.633 119.859 811.44 120.308 811.44 120.894C811.44 121.293 811.558 121.623 811.795 121.885C812.045 122.135 812.357 122.334 812.731 122.484C813.105 122.634 813.616 122.796 814.265 122.97C815.126 123.207 815.824 123.444 816.36 123.681C816.909 123.918 817.371 124.286 817.745 124.785C818.131 125.272 818.325 125.926 818.325 126.75C818.325 127.411 818.144 128.034 817.782 128.62C817.433 129.207 816.915 129.68 816.229 130.042C815.556 130.391 814.758 130.566 813.835 130.566ZM820.13 123.906C820.13 122.634 820.423 121.492 821.01 120.482C821.608 119.472 822.413 118.686 823.423 118.125C824.446 117.551 825.562 117.264 826.772 117.264C828.156 117.264 829.385 117.607 830.457 118.293C831.542 118.967 832.328 119.927 832.815 121.174H830.251C829.915 120.488 829.447 119.977 828.848 119.64C828.25 119.304 827.557 119.135 826.772 119.135C825.911 119.135 825.144 119.329 824.471 119.715C823.797 120.102 823.267 120.657 822.88 121.38C822.506 122.104 822.319 122.945 822.319 123.906C822.319 124.866 822.506 125.708 822.88 126.431C823.267 127.155 823.797 127.716 824.471 128.115C825.144 128.502 825.911 128.695 826.772 128.695C827.557 128.695 828.25 128.527 828.848 128.19C829.447 127.853 829.915 127.342 830.251 126.656H832.815C832.328 127.903 831.542 128.864 830.457 129.537C829.385 130.211 828.156 130.547 826.772 130.547C825.549 130.547 824.433 130.267 823.423 129.705C822.413 129.132 821.608 128.34 821.01 127.329C820.423 126.319 820.13 125.178 820.13 123.906ZM841.241 130.566C840.032 130.566 838.915 130.285 837.893 129.724C836.882 129.15 836.078 128.358 835.479 127.348C834.893 126.325 834.6 125.178 834.6 123.906C834.6 122.634 834.893 121.492 835.479 120.482C836.078 119.472 836.882 118.686 837.893 118.125C838.915 117.551 840.032 117.264 841.241 117.264C842.464 117.264 843.58 117.551 844.59 118.125C845.613 118.686 846.417 119.472 847.004 120.482C847.59 121.492 847.883 122.634 847.883 123.906C847.883 125.178 847.59 126.325 847.004 127.348C846.417 128.358 845.613 129.15 844.59 129.724C843.58 130.285 842.464 130.566 841.241 130.566ZM841.241 128.714C842.102 128.714 842.869 128.521 843.543 128.134C844.216 127.735 844.74 127.174 845.114 126.45C845.501 125.714 845.694 124.866 845.694 123.906C845.694 122.945 845.501 122.104 845.114 121.38C844.74 120.657 844.216 120.102 843.543 119.715C842.869 119.329 842.102 119.135 841.241 119.135C840.381 119.135 839.614 119.329 838.94 119.715C838.267 120.102 837.737 120.657 837.35 121.38C836.976 122.104 836.789 122.945 836.789 123.906C836.789 124.866 836.976 125.714 837.35 126.45C837.737 127.174 838.267 127.735 838.94 128.134C839.614 128.521 840.381 128.714 841.241 128.714ZM859.074 121.305C859.074 121.966 858.918 122.59 858.606 123.176C858.294 123.762 857.795 124.243 857.109 124.617C856.424 124.978 855.544 125.159 854.472 125.159H852.114V130.435H849.982V117.433H854.472C855.469 117.433 856.311 117.607 856.997 117.957C857.696 118.293 858.213 118.755 858.55 119.341C858.899 119.927 859.074 120.582 859.074 121.305ZM854.472 123.419C855.282 123.419 855.887 123.239 856.286 122.877C856.685 122.503 856.885 121.979 856.885 121.305C856.885 119.884 856.081 119.173 854.472 119.173H852.114V123.419H854.472ZM863.241 119.154V122.97H867.731V124.71H863.241V128.695H868.292V130.435H861.108V117.414H868.292V119.154H863.241Z" fill="black"/>
<rect x="0.959957" y="0.959957" width="671.97" height="466.539" stroke="black" stroke-width="1.91991"/>
<circle cx="9.59957" cy="9.59957" r="9.59957" transform="matrix(-1 0 0 1 602.853 26.8788)" fill="black"/>
<circle cx="9.59957" cy="9.59957" r="9.59957" transform="matrix(-1 0 0 1 602.853 220.79)" fill="black"/>
<circle cx="9.59957" cy="9.59957" r="9.59957" transform="matrix(-1 0 0 1 493.418 295.667)" fill="black"/>
<circle cx="9.59957" cy="9.59957" r="9.59957" transform="matrix(-1 0 0 1 493.418 395.502)" fill="black"/>
<circle cx="9.59957" cy="9.59957" r="9.59957" transform="matrix(-1 0 0 1 650.851 26.8788)" fill="black"/>
<circle cx="9.59957" cy="9.59957" r="9.59957" transform="matrix(-1 0 0 1 383.983 26.8788)" fill="black"/>
<circle cx="9.59957" cy="9.59957" r="9.59957" transform="matrix(-1 0 0 1 602.853 103.675)" fill="black"/>
<circle cx="9.59957" cy="9.59957" r="9.59957" transform="matrix(-1 0 0 1 602.853 295.667)" fill="black"/>
<circle cx="9.59957" cy="9.59957" r="9.59957" transform="matrix(-1 0 0 1 650.851 295.667)" fill="black"/>
<circle cx="9.59957" cy="9.59957" r="9.59957" transform="matrix(-1 0 0 1 775.645 295.667)" fill="black"/>
<circle cx="9.59957" cy="9.59957" r="9.59957" transform="matrix(-1 0 0 1 831.323 395.502)" fill="black"/>
<circle cx="9.59957" cy="9.59957" r="9.59957" transform="matrix(-1 0 0 1 831.323 236.149)" fill="black"/>
<circle cx="9.59957" cy="9.59957" r="9.59957" transform="matrix(-1 0 0 1 775.645 236.149)" fill="black"/>
<line x1="593.253" y1="46.0779" x2="593.253" y2="107.515" stroke="black" stroke-width="3.83983"/>
<line x1="593.253" y1="236.149" x2="593.253" y2="297.587" stroke="black" stroke-width="3.83983"/>
<line x1="821.723" y1="249.589" x2="821.723" y2="395.502" stroke="black" stroke-width="3.83983"/>
<line x1="767.965" y1="245.749" x2="767.965" y2="307.186" stroke="black" stroke-width="3.83983"/>
<line x1="483.818" y1="314.866" x2="483.818" y2="395.502" stroke="black" stroke-width="3.83983"/>
<line x1="641.251" y1="46.0779" x2="641.251" y2="295.667" stroke="black" stroke-width="3.83983"/>
<line x1="641.251" y1="36.4784" x2="383.983" y2="36.4784" stroke="black" stroke-width="3.83983"/>
<circle cx="32.6386" cy="255.349" r="9.59957" fill="black"/>
<circle cx="157.433" cy="305.266" r="9.59957" fill="black"/>
<circle cx="157.433" cy="359.024" r="9.59957" fill="black"/>
<circle cx="157.433" cy="408.942" r="9.59957" fill="black"/>
<circle cx="32.6386" cy="359.024" r="9.59957" fill="black"/>
<line x1="32.6385" y1="264.948" x2="32.6385" y2="351.344" stroke="black" stroke-width="3.83983"/>
<line x1="157.433" y1="312.946" x2="157.433" y2="399.342" stroke="black" stroke-width="3.83983"/>
<line x1="38.3983" y1="359.024" x2="151.673" y2="359.024" stroke="black" stroke-width="3.83983"/>
<line x1="167.032" y1="305.266" x2="591.333" y2="305.266" stroke="black" stroke-width="3.83983"/>
<line x1="650.851" y1="305.266" x2="756.446" y2="305.266" stroke="black" stroke-width="3.83983"/>
<line x1="493.418" y1="405.102" x2="812.123" y2="405.102" stroke="black" stroke-width="3.83983"/>
<circle cx="32.6386" cy="34.5585" r="9.59957" fill="black"/>
<circle cx="301.426" cy="36.4784" r="9.59957" fill="black"/>
<circle cx="32.6386" cy="168.952" r="9.59957" fill="black"/>
<line x1="38.3983" y1="36.4783" x2="297.587" y2="36.4783" stroke="black" stroke-width="3.83983"/>
<line x1="32.6385" y1="44.158" x2="32.6385" y2="159.353" stroke="black" stroke-width="3.83983"/>
<rect x="710.368" y="140.154" width="176.632" height="105.595" fill="black"/>
<rect x="714.208" y="143.993" width="168.952" height="97.9156" fill="#424242"/>
<rect x="721.888" y="147.833" width="153.593" height="90.2359" fill="black"/>
<line x1="799.644" y1="147.833" x2="799.644" y2="238.069" stroke="#404040" stroke-width="1.91991" stroke-dasharray="3.84 3.84"/>
<line x1="875.481" y1="194.871" x2="721.888" y2="194.871" stroke="#404040" stroke-width="1.91991" stroke-dasharray="3.84 3.84"/>
</g>
<defs>
<clipPath id="clip0_5_147">
<rect width="887" height="468.459" fill="white"/>
</clipPath>
</defs>
</svg>
